<?xml version="1.0" encoding="utf-8"?>
<!-- Generator: Adobe Illustrator 27.8.0, SVG Export Plug-In . SVG Version: 6.00 Build 0)  -->
<svg version="1.1" id="Layer_1" xmlns="http://www.w3.org/2000/svg" xmlns:xlink="http://www.w3.org/1999/xlink" x="0px" y="0px"
	 viewBox="0 0 230.39 110.74" style="enable-background:new 0 0 230.39 110.74;" xml:space="preserve">
<style type="text/css">
	.st0{fill:#393361;}
	.st1{fill:#FFFEFA;}
</style>
<rect x="18.12" y="43.55" class="st0" width="205.87" height="52"/>
<path class="st1" d="M22.37,82.55v-35.5h15.2c1.57,0,3,0.33,4.3,1c1.3,0.63,2.43,1.5,3.4,2.6c0.97,1.07,1.72,2.28,2.25,3.65
	c0.53,1.33,0.8,2.7,0.8,4.1c0,1.63-0.32,3.18-0.95,4.65c-0.6,1.47-1.47,2.72-2.6,3.75c-1.1,1.03-2.4,1.75-3.9,2.15l8.6,13.6h-5.1
	l-8.1-12.75h-9.4v12.75H22.37z M26.87,65.8h10.75c1.23,0,2.3-0.33,3.2-1c0.93-0.7,1.65-1.62,2.15-2.75c0.53-1.13,0.8-2.35,0.8-3.65
	c0-1.33-0.3-2.55-0.9-3.65c-0.6-1.13-1.38-2.03-2.35-2.7c-0.97-0.67-2.03-1-3.2-1H26.87V65.8z M65.25,83.05
	c-1.97,0-3.77-0.35-5.4-1.05c-1.6-0.73-3-1.72-4.2-2.95c-1.17-1.27-2.08-2.72-2.75-4.35c-0.63-1.63-0.95-3.37-0.95-5.2
	c0-2.47,0.57-4.72,1.7-6.75c1.13-2.03,2.7-3.67,4.7-4.9C60.38,56.62,62.7,56,65.3,56c2.63,0,4.92,0.63,6.85,1.9
	c1.97,1.23,3.48,2.87,4.55,4.9c1.1,2,1.65,4.17,1.65,6.5c0,0.33-0.02,0.67-0.05,1c0,0.3-0.02,0.53-0.05,0.7H56.6
	c0.13,1.7,0.6,3.22,1.4,4.55c0.83,1.3,1.9,2.33,3.2,3.1c1.3,0.73,2.7,1.1,4.2,1.1c1.6,0,3.1-0.4,4.5-1.2
	c1.43-0.8,2.42-1.85,2.95-3.15l3.8,1.05c-0.57,1.27-1.42,2.4-2.55,3.4c-1.1,1-2.42,1.78-3.95,2.35
	C68.65,82.77,67.01,83.05,65.25,83.05z M56.45,67.95h17.8c-0.13-1.7-0.62-3.2-1.45-4.5c-0.83-1.3-1.9-2.32-3.2-3.05
	c-1.3-0.73-2.73-1.1-4.3-1.1c-1.53,0-2.95,0.37-4.25,1.1c-1.3,0.73-2.37,1.75-3.2,3.05C57.05,64.75,56.58,66.25,56.45,67.95z
	 M92.19,83.05c-2.17,0-4.2-0.35-6.1-1.05c-1.9-0.73-3.53-1.82-4.9-3.25l1.7-3.1c1.5,1.4,3,2.4,4.5,3s3.03,0.9,4.6,0.9
	c1.8,0,3.27-0.33,4.4-1c1.13-0.7,1.7-1.72,1.7-3.05c0-0.97-0.3-1.68-0.9-2.15c-0.57-0.47-1.38-0.85-2.45-1.15
	c-1.07-0.33-2.33-0.7-3.8-1.1c-1.8-0.53-3.32-1.1-4.55-1.7c-1.23-0.6-2.17-1.35-2.8-2.25c-0.63-0.9-0.95-2.03-0.95-3.4
	c0-1.67,0.43-3.07,1.3-4.2c0.87-1.17,2.05-2.05,3.55-2.65c1.53-0.6,3.27-0.9,5.2-0.9c1.93,0,3.68,0.3,5.25,0.9
	c1.57,0.6,2.92,1.48,4.05,2.65l-2,3.05c-1.03-1.07-2.17-1.85-3.4-2.35c-1.23-0.53-2.62-0.8-4.15-0.8c-0.9,0-1.78,0.12-2.65,0.35
	c-0.87,0.2-1.58,0.58-2.15,1.15c-0.57,0.53-0.85,1.3-0.85,2.3c0,0.83,0.22,1.5,0.65,2c0.47,0.47,1.13,0.87,2,1.2
	c0.9,0.33,1.98,0.7,3.25,1.1c1.97,0.57,3.67,1.13,5.1,1.7c1.47,0.57,2.6,1.3,3.4,2.2c0.8,0.9,1.2,2.15,1.2,3.75
	c0,2.47-0.93,4.4-2.8,5.8C97.72,82.37,95.25,83.05,92.19,83.05z M107.4,72.1V56.45h4.4v14.8c0,2.67,0.47,4.67,1.4,6
	c0.93,1.33,2.32,2,4.15,2c1.2,0,2.35-0.25,3.45-0.75c1.13-0.53,2.15-1.28,3.05-2.25c0.9-0.97,1.6-2.12,2.1-3.45V56.45h4.4v21.1
	c0,0.53,0.1,0.93,0.3,1.2c0.23,0.23,0.6,0.37,1.1,0.4v3.4c-0.5,0.07-0.9,0.1-1.2,0.1c-0.27,0.03-0.53,0.05-0.8,0.05
	c-0.83,0-1.55-0.25-2.15-0.75c-0.6-0.53-0.92-1.18-0.95-1.95l-0.1-3.05c-1.13,1.93-2.67,3.43-4.6,4.5c-1.9,1.07-3.98,1.6-6.25,1.6
	c-2.73,0-4.8-0.92-6.2-2.75C108.1,78.43,107.4,75.7,107.4,72.1z M177.03,82.55h-4.4v-14.6c0-2.73-0.45-4.75-1.35-6.05
	c-0.87-1.3-2.17-1.95-3.9-1.95c-1.77,0-3.37,0.65-4.8,1.95c-1.43,1.27-2.45,2.92-3.05,4.95v15.7h-4.4v-14.6
	c0-2.77-0.43-4.78-1.3-6.05c-0.87-1.3-2.17-1.95-3.9-1.95c-1.73,0-3.33,0.63-4.8,1.9c-1.43,1.23-2.45,2.88-3.05,4.95v15.75h-4.4
	v-26.1h4v5.6c1.07-1.93,2.45-3.42,4.15-4.45c1.7-1.07,3.62-1.6,5.75-1.6c2.17,0,3.9,0.6,5.2,1.8c1.3,1.17,2.1,2.68,2.4,4.55
	c1.17-2.07,2.58-3.63,4.25-4.7c1.67-1.1,3.57-1.65,5.7-1.65c1.5,0,2.75,0.28,3.75,0.85c1.03,0.53,1.85,1.3,2.45,2.3
	c0.6,0.97,1.03,2.12,1.3,3.45c0.27,1.33,0.4,2.78,0.4,4.35V82.55z M195.42,83.05c-1.97,0-3.77-0.35-5.4-1.05
	c-1.6-0.73-3-1.72-4.2-2.95c-1.17-1.27-2.08-2.72-2.75-4.35c-0.63-1.63-0.95-3.37-0.95-5.2c0-2.47,0.57-4.72,1.7-6.75
	c1.13-2.03,2.7-3.67,4.7-4.9c2.03-1.23,4.35-1.85,6.95-1.85c2.63,0,4.92,0.63,6.85,1.9c1.97,1.23,3.48,2.87,4.55,4.9
	c1.1,2,1.65,4.17,1.65,6.5c0,0.33-0.02,0.67-0.05,1c0,0.3-0.02,0.53-0.05,0.7h-21.65c0.13,1.7,0.6,3.22,1.4,4.55
	c0.83,1.3,1.9,2.33,3.2,3.1c1.3,0.73,2.7,1.1,4.2,1.1c1.6,0,3.1-0.4,4.5-1.2c1.43-0.8,2.42-1.85,2.95-3.15l3.8,1.05
	c-0.57,1.27-1.42,2.4-2.55,3.4c-1.1,1-2.42,1.78-3.95,2.35C198.82,82.77,197.19,83.05,195.42,83.05z M186.62,67.95h17.8
	c-0.13-1.7-0.62-3.2-1.45-4.5c-0.83-1.3-1.9-2.32-3.2-3.05c-1.3-0.73-2.73-1.1-4.3-1.1c-1.53,0-2.95,0.37-4.25,1.1
	c-1.3,0.73-2.37,1.75-3.2,3.05C187.22,64.75,186.76,66.25,186.62,67.95z"/>
<path class="st0" d="M21.52,45.55v-35.5h24.1v7.2h-15.9v7.65h13.1v6.65h-13.1v14H21.52z M49.23,9.05h8V36.2c0,1.1,0.2,1.88,0.6,2.35
	c0.4,0.47,0.97,0.7,1.7,0.7c0.5,0,1-0.07,1.5-0.2c0.53-0.17,1-0.35,1.4-0.55l1.05,6c-1,0.47-2.15,0.83-3.45,1.1
	c-1.3,0.27-2.52,0.4-3.65,0.4c-2.27,0-4.03-0.6-5.3-1.8c-1.23-1.23-1.85-2.97-1.85-5.2V9.05z M78.63,46.05
	c-2.23,0-4.22-0.35-5.95-1.05c-1.73-0.73-3.22-1.72-4.45-2.95c-1.2-1.23-2.12-2.65-2.75-4.25c-0.63-1.63-0.95-3.33-0.95-5.1
	c0-2.53,0.55-4.83,1.65-6.9c1.13-2.1,2.75-3.78,4.85-5.05c2.1-1.3,4.63-1.95,7.6-1.95c2.97,0,5.48,0.63,7.55,1.9
	c2.1,1.27,3.7,2.93,4.8,5c1.1,2.03,1.65,4.25,1.65,6.65c0,0.47-0.03,0.93-0.1,1.4c-0.03,0.43-0.07,0.82-0.1,1.15h-19.4
	c0.1,1.17,0.42,2.15,0.95,2.95c0.57,0.8,1.28,1.42,2.15,1.85c0.87,0.4,1.78,0.6,2.75,0.6c1.2,0,2.32-0.28,3.35-0.85
	c1.07-0.57,1.8-1.33,2.2-2.3l6.8,1.9c-0.67,1.37-1.62,2.58-2.85,3.65c-1.2,1.03-2.63,1.85-4.3,2.45
	C82.45,45.75,80.63,46.05,78.63,46.05z M72.83,30h11.4c-0.13-1.1-0.45-2.05-0.95-2.85c-0.5-0.83-1.17-1.47-2-1.9
	c-0.83-0.47-1.75-0.7-2.75-0.7c-1.03,0-1.97,0.23-2.8,0.7c-0.8,0.43-1.45,1.07-1.95,1.9C73.28,27.95,72.96,28.9,72.83,30z
	 M100.83,19.3l4.65,7.4l0.5,0.95l0.5-0.95l4.65-7.4h8.25l-8.8,13.05l9,13.2h-8.25l-4.9-7.35l-0.45-0.95l-0.45,0.95l-4.9,7.35h-8.25
	l9-13.05l-8.8-13.2H100.83z M122.28,45.55V19.3h8v26.25H122.28z M122.28,16.3V9.05h8v7.25H122.28z M151.51,46.05
	c-2,0-3.75-0.42-5.25-1.25c-1.5-0.87-2.68-2.07-3.55-3.6v4.35h-6.95V9.05h8V23.6c0.87-1.53,2.02-2.72,3.45-3.55
	c1.47-0.83,3.18-1.25,5.15-1.25c1.67,0,3.18,0.37,4.55,1.1c1.4,0.7,2.6,1.68,3.6,2.95c1.03,1.23,1.83,2.68,2.4,4.35
	c0.57,1.63,0.85,3.42,0.85,5.35c0,1.9-0.32,3.67-0.95,5.3c-0.6,1.63-1.45,3.07-2.55,4.3c-1.1,1.23-2.4,2.2-3.9,2.9
	C154.89,45.72,153.27,46.05,151.51,46.05z M149.26,39.3c0.9,0,1.73-0.17,2.5-0.5c0.8-0.37,1.48-0.85,2.05-1.45
	c0.57-0.6,1-1.3,1.3-2.1c0.3-0.83,0.45-1.73,0.45-2.7c0-1.23-0.25-2.38-0.75-3.45s-1.2-1.92-2.1-2.55
	c-0.87-0.63-1.88-0.95-3.05-0.95c-0.83,0-1.63,0.2-2.4,0.6c-0.77,0.4-1.45,0.95-2.05,1.65c-0.6,0.67-1.08,1.43-1.45,2.3v5.5
	c0.27,0.57,0.6,1.08,1,1.55c0.4,0.43,0.83,0.8,1.3,1.1c0.5,0.3,1.02,0.55,1.55,0.75C148.17,39.22,148.72,39.3,149.26,39.3z
	 M167.64,9.05h8V36.2c0,1.1,0.2,1.88,0.6,2.35s0.97,0.7,1.7,0.7c0.5,0,1-0.07,1.5-0.2c0.53-0.17,1-0.35,1.4-0.55l1.05,6
	c-1,0.47-2.15,0.83-3.45,1.1s-2.52,0.4-3.65,0.4c-2.27,0-4.03-0.6-5.3-1.8c-1.23-1.23-1.85-2.97-1.85-5.2V9.05z M197.04,46.05
	c-2.23,0-4.22-0.35-5.95-1.05c-1.73-0.73-3.22-1.72-4.45-2.95c-1.2-1.23-2.12-2.65-2.75-4.25c-0.63-1.63-0.95-3.33-0.95-5.1
	c0-2.53,0.55-4.83,1.65-6.9c1.13-2.1,2.75-3.78,4.85-5.05c2.1-1.3,4.63-1.95,7.6-1.95c2.97,0,5.48,0.63,7.55,1.9
	c2.1,1.27,3.7,2.93,4.8,5c1.1,2.03,1.65,4.25,1.65,6.65c0,0.47-0.03,0.93-0.1,1.4c-0.03,0.43-0.07,0.82-0.1,1.15h-19.4
	c0.1,1.17,0.42,2.15,0.95,2.95c0.57,0.8,1.28,1.42,2.15,1.85c0.87,0.4,1.78,0.6,2.75,0.6c1.2,0,2.32-0.28,3.35-0.85
	c1.07-0.57,1.8-1.33,2.2-2.3l6.8,1.9c-0.67,1.37-1.62,2.58-2.85,3.65c-1.2,1.03-2.63,1.85-4.3,2.45
	C200.86,45.75,199.04,46.05,197.04,46.05z M191.24,30h11.4c-0.13-1.1-0.45-2.05-0.95-2.85c-0.5-0.83-1.17-1.47-2-1.9
	c-0.83-0.47-1.75-0.7-2.75-0.7c-1.03,0-1.97,0.23-2.8,0.7c-0.8,0.43-1.45,1.07-1.95,1.9C191.69,27.95,191.37,28.9,191.24,30z"/>
</svg>
